<?xml version="1.0" standalone="no"?>
<!DOCTYPE svg PUBLIC "-//W3C//DTD SVG 20010904//EN"
 "http://www.w3.org/TR/2001/REC-SVG-20010904/DTD/svg10.dtd">
<svg version="1.0" xmlns="http://www.w3.org/2000/svg" viewBox="0 0 1000 1000"
 preserveAspectRatio="xMidYMid meet">

<g transform="translate(75,975) scale(0.1,-0.1)"
fill="#ffffff" stroke="none">
<path d="M4485 10103 c-40 -10 -55 -34 -55 -86 0 -27 -4 -77 -10 -111 -5 -33
-20 -149 -31 -256 -12 -107 -25 -224 -30 -260 -4 -36 -12 -103 -18 -150 -5
-47 -17 -143 -26 -215 -9 -71 -21 -163 -26 -202 -5 -40 -13 -106 -18 -145 -6
-40 -14 -116 -20 -168 -6 -52 -13 -111 -17 -130 -3 -19 -10 -73 -16 -120 -11
-101 -21 -182 -37 -305 -11 -80 -20 -156 -51 -420 -5 -38 -13 -108 -19 -155
-10 -77 -26 -219 -51 -450 -5 -47 -14 -123 -19 -169 -9 -88 -7 -110 13 -112
25 -3 62 2 86 11 38 14 268 40 357 40 87 0 297 -25 355 -42 30 -9 41 -8 54 3
18 15 16 71 -6 244 -14 102 -26 213 -39 345 -10 98 -15 142 -41 353 -6 45 -17
152 -25 237 -9 85 -20 189 -25 230 -5 41 -14 122 -20 180 -16 151 -28 263 -40
360 -6 47 -15 130 -21 185 -21 205 -29 272 -38 350 -11 94 -38 332 -52 460 -5
50 -13 122 -18 160 -5 39 -14 122 -21 185 -10 104 -28 162 -48 159 -4 -1 -16
-4 -27 -6z"/>
<path d="M3830 9068 c-14 -6 -38 -14 -55 -18 -16 -4 -79 -26 -140 -48 -60 -22
-144 -52 -185 -67 -41 -14 -84 -30 -95 -35 -11 -5 -64 -23 -118 -39 -134 -43
-140 -46 -134 -98 2 -23 19 -65 37 -95 18 -29 41 -66 50 -83 10 -16 37 -61 60
-100 24 -38 53 -88 65 -110 18 -34 166 -281 195 -325 8 -13 101 -172 151 -260
8 -14 19 -32 26 -40 6 -8 24 -37 39 -65 45 -81 49 -88 73 -127 28 -46 64 -71
80 -55 16 16 16 1548 -1 1565 -14 14 -15 14 -48 0z"/>
<path d="M5081 9067 c-8 -8 -11 -255 -11 -777 0 -730 1 -768 18 -783 40 -36
64 -16 154 129 29 48 62 100 73 118 77 120 205 328 205 332 0 2 18 30 39 62
21 31 51 80 66 107 16 28 38 62 50 76 11 14 47 71 79 125 32 54 80 135 107
178 51 82 64 141 36 164 -6 6 -48 22 -92 37 -44 15 -89 31 -100 35 -37 17
-379 138 -450 160 -38 12 -79 26 -90 30 -35 15 -74 17 -84 7z"/>
<path d="M6285 8916 c-24 -10 -41 -35 -84 -122 -30 -60 -62 -120 -72 -134 -9
-14 -40 -70 -69 -125 -29 -55 -59 -107 -66 -116 -8 -8 -14 -19 -14 -22 0 -4
-22 -46 -49 -94 -26 -49 -65 -119 -86 -158 -21 -38 -61 -110 -90 -160 -28 -49
-54 -97 -58 -105 -4 -8 -22 -42 -41 -75 -18 -33 -44 -80 -58 -105 -13 -25 -35
-62 -47 -83 -12 -22 -42 -78 -68 -125 -25 -48 -49 -91 -53 -97 -4 -5 -22 -36
-39 -67 -57 -106 -88 -163 -111 -203 -23 -40 -49 -88 -117 -215 -19 -36 -40
-72 -47 -80 -14 -18 -82 -157 -90 -186 -8 -28 6 -38 79 -54 148 -31 414 -149
570 -250 165 -109 401 -325 500 -460 43 -58 43 -59 123 -176 66 -97 159 -281
216 -428 67 -168 87 -256 126 -551 20 -157 13 -385 -21 -610 -13 -89 -57 -276
-68 -290 -5 -5 -16 -35 -26 -65 -9 -30 -25 -74 -36 -97 -10 -24 -19 -45 -19
-48 0 -3 -17 -41 -38 -83 -149 -299 -240 -424 -450 -617 -121 -111 -173 -151
-312 -241 -120 -77 -477 -222 -629 -255 -223 -49 -347 -61 -581 -55 -313 7
-456 33 -741 131 -137 47 -407 175 -435 206 -9 10 -21 19 -27 19 -5 0 -52 35
-105 77 -52 43 -118 97 -147 119 -28 23 -78 72 -111 110 -32 37 -66 75 -74 83
-33 36 -139 191 -182 266 -55 97 -118 219 -118 228 0 4 -10 29 -23 55 -13 26
-29 69 -37 95 -7 26 -17 50 -21 53 -5 3 -9 16 -9 28 0 13 -7 42 -15 65 -49
141 -77 352 -78 596 -1 235 20 400 74 590 30 105 41 142 49 160 4 11 15 39 24
62 38 103 123 274 174 353 74 113 206 287 261 343 67 70 207 189 276 237 28
18 63 42 79 53 33 22 304 161 383 195 64 28 185 68 236 76 49 9 55 28 27 79
-12 23 -43 83 -69 132 -47 88 -91 170 -156 290 -34 61 -99 185 -164 310 -21
39 -62 115 -93 170 -102 183 -226 409 -268 490 -23 44 -51 96 -63 115 -11 19
-32 58 -47 85 -15 28 -47 86 -71 130 -47 86 -79 145 -148 277 -24 46 -51 94
-61 108 -9 14 -27 46 -39 72 -12 25 -28 51 -36 58 -16 14 -62 3 -69 -16 -5
-12 15 -113 56 -289 5 -22 13 -60 18 -85 9 -46 55 -257 70 -320 4 -19 13 -57
19 -85 6 -27 22 -104 37 -170 14 -66 30 -140 34 -166 5 -25 13 -64 20 -88 6
-23 18 -77 26 -119 8 -43 18 -95 23 -117 5 -22 19 -87 31 -145 12 -58 30 -143
41 -190 10 -47 21 -105 25 -130 6 -50 18 -40 -126 -117 -36 -19 -72 -41 -80
-47 -8 -7 -22 -16 -30 -20 -8 -3 -30 -15 -48 -26 -18 -11 -39 -17 -45 -14 -7
4 -97 63 -202 132 -104 69 -208 136 -230 150 -22 14 -49 34 -60 43 -11 9 -42
29 -70 45 -27 15 -87 53 -133 86 -45 32 -84 58 -87 58 -2 0 -30 17 -61 38 -31
20 -64 42 -73 47 -9 6 -36 24 -61 41 -130 91 -196 134 -207 134 -31 0 -27 -70
7 -120 48 -70 70 -107 70 -114 0 -4 13 -24 29 -44 16 -20 41 -59 56 -87 15
-27 36 -62 46 -77 11 -14 19 -29 19 -33 0 -4 24 -44 54 -88 74 -113 116 -181
211 -337 45 -74 95 -155 111 -180 73 -114 94 -154 94 -182 0 -13 -16 -45 -36
-73 -19 -27 -50 -72 -69 -100 -42 -61 -96 -139 -100 -143 -2 -2 -20 1 -42 7
-21 5 -92 22 -158 36 -66 15 -136 30 -155 35 -19 5 -69 16 -110 25 -41 9 -91
20 -110 25 -19 4 -60 13 -90 20 -30 6 -71 15 -90 20 -19 5 -69 16 -110 26 -88
19 -221 49 -305 69 -33 7 -71 16 -85 19 -14 2 -43 10 -65 16 -55 16 -107 27
-195 45 -41 8 -111 24 -155 35 -44 12 -109 27 -145 35 -36 7 -73 16 -83 20
-28 11 -47 -13 -47 -60 0 -42 2 -44 57 -77 106 -62 118 -70 138 -87 11 -9 31
-23 45 -29 29 -14 53 -28 97 -59 17 -13 36 -23 41 -23 5 0 15 -7 23 -16 7 -9
27 -23 45 -32 18 -9 69 -39 113 -67 45 -27 110 -68 146 -90 35 -22 104 -64
152 -94 48 -29 113 -71 145 -92 31 -22 59 -39 63 -39 3 0 45 -26 94 -59 48
-32 92 -60 97 -62 10 -5 137 -82 193 -119 22 -14 61 -38 87 -54 133 -79 125
-71 118 -129 -6 -48 -23 -133 -44 -217 -26 -106 -32 -125 -41 -136 -5 -6 -51
-19 -102 -28 -50 -10 -108 -21 -127 -26 -19 -5 -51 -12 -70 -15 -19 -3 -55
-10 -80 -14 -25 -5 -85 -17 -135 -26 -49 -9 -112 -20 -140 -26 -79 -16 -131
-26 -270 -53 -201 -40 -227 -45 -270 -55 -22 -5 -73 -16 -114 -24 -86 -18
-104 -30 -75 -52 10 -8 30 -18 44 -21 14 -3 99 -26 190 -51 91 -25 181 -48
200 -53 19 -5 96 -24 170 -44 74 -19 207 -53 295 -75 88 -23 171 -45 185 -50
14 -5 87 -24 162 -42 l138 -32 20 -67 c11 -37 20 -74 20 -82 0 -8 4 -18 9 -23
5 -6 16 -50 25 -100 19 -105 30 -87 -110 -175 -48 -30 -123 -79 -167 -108 -43
-28 -81 -52 -83 -52 -3 0 -64 -40 -137 -89 -149 -99 -705 -467 -782 -515 -104
-67 -163 -106 -262 -175 -57 -39 -107 -71 -112 -71 -5 0 -14 -6 -20 -14 -8
-10 -8 -16 2 -24 10 -9 66 -1 218 28 112 22 220 44 239 50 60 15 121 29 235
51 105 20 157 31 235 49 45 11 184 40 235 50 22 4 96 20 165 35 69 15 145 31
170 35 25 5 77 15 115 23 183 39 334 67 361 67 24 -1 36 -11 74 -65 25 -36 62
-88 82 -117 61 -86 60 -100 -14 -218 -124 -198 -147 -236 -202 -330 -31 -52
-90 -149 -131 -215 -41 -66 -85 -137 -97 -159 -34 -58 -41 -69 -65 -103 -13
-17 -23 -34 -23 -37 0 -4 -23 -43 -51 -89 -81 -129 -99 -164 -99 -192 0 -57
55 -38 252 91 125 81 151 98 253 159 44 27 145 91 225 143 80 52 192 125 249
161 57 36 140 90 184 119 l80 54 36 -20 c20 -11 63 -34 96 -53 78 -42 104 -55
139 -69 25 -9 28 -14 24 -48 -4 -31 -42 -207 -78 -359 -13 -56 -25 -110 -45
-203 -9 -41 -20 -91 -25 -110 -20 -77 -59 -247 -65 -285 -4 -22 -13 -65 -20
-95 -8 -30 -18 -75 -24 -100 -13 -61 -40 -177 -51 -220 -11 -45 -23 -97 -55
-245 -14 -66 -35 -157 -46 -202 -12 -45 -22 -113 -22 -150 l-2 -68 30 -3 c26
-2 36 5 73 53 23 30 42 58 42 61 0 4 21 39 47 78 61 91 69 105 87 141 8 17 23
41 33 55 11 14 35 52 53 85 19 33 51 85 71 116 21 31 46 71 57 90 11 19 38 63
61 99 23 36 44 72 48 80 3 8 18 33 33 55 37 55 60 93 86 141 12 22 46 78 76
125 30 46 72 113 93 149 21 36 75 121 118 190 44 69 91 144 106 168 l26 43 55
-6 c30 -4 84 -14 120 -21 36 -8 94 -19 129 -24 35 -4 67 -12 71 -17 8 -8 50
-163 71 -262 15 -69 25 -114 54 -241 14 -63 30 -137 36 -165 6 -27 15 -66 20
-85 4 -19 11 -48 14 -65 11 -54 34 -159 51 -225 8 -36 24 -108 35 -160 10 -52
26 -112 35 -132 16 -36 71 -88 93 -88 17 0 41 43 41 72 0 15 4 37 9 50 9 23
30 114 76 333 14 66 29 140 34 165 27 127 41 191 51 245 6 33 15 76 20 95 5
19 21 98 35 175 14 77 30 154 35 170 4 17 11 49 15 72 7 47 10 49 100 58 33 3
89 10 125 15 36 5 98 11 137 13 l73 4 55 -88 c30 -49 55 -91 55 -94 0 -2 18
-30 40 -61 22 -32 40 -61 40 -66 0 -5 32 -56 70 -114 39 -59 70 -109 70 -113
0 -3 14 -24 30 -45 17 -22 30 -43 30 -47 0 -4 27 -48 60 -98 33 -50 60 -93 60
-96 0 -3 22 -39 50 -80 28 -41 50 -77 50 -81 0 -4 11 -21 23 -38 13 -17 26
-36 28 -42 2 -6 33 -57 69 -113 36 -56 82 -130 104 -164 85 -138 142 -230 152
-249 20 -34 32 -41 70 -40 57 2 60 11 36 104 -11 46 -26 108 -32 138 -7 30
-16 71 -20 90 -5 19 -16 71 -25 115 -16 80 -26 127 -45 208 -5 23 -21 98 -35
167 -14 69 -30 143 -35 165 -14 58 -67 307 -90 422 -11 54 -27 130 -35 168
-21 89 -32 137 -44 200 -6 28 -17 77 -25 109 -14 57 -13 60 7 77 12 10 31 21
41 25 11 4 41 21 66 38 70 47 81 54 138 81 68 32 82 32 137 -8 26 -17 54 -37
63 -42 29 -17 91 -58 232 -151 74 -49 140 -91 145 -94 6 -3 64 -41 130 -85 66
-44 125 -82 130 -84 6 -2 42 -25 80 -50 39 -26 108 -72 155 -103 69 -47 94
-57 134 -60 69 -4 80 16 40 74 -16 23 -31 48 -34 53 -6 12 -88 146 -110 179
-8 13 -42 65 -75 116 -164 251 -247 378 -270 412 -14 20 -25 41 -25 46 0 5 -7
16 -16 23 -9 7 -20 22 -25 34 -11 24 -21 41 -76 123 -24 35 -43 66 -43 70 0 4
-9 18 -20 32 -27 35 -24 66 13 131 18 30 58 101 91 157 63 111 58 108 136 82
33 -11 134 -34 315 -72 28 -6 59 -14 70 -18 11 -5 63 -16 115 -26 52 -9 138
-28 190 -41 79 -20 269 -61 370 -80 14 -2 34 -8 45 -12 11 -5 61 -17 110 -26
50 -10 115 -24 145 -31 462 -106 521 -115 528 -80 9 41 -48 94 -183 172 -60
35 -216 130 -252 155 -23 16 -44 29 -48 29 -3 0 -61 35 -128 78 -67 43 -129
81 -137 85 -8 4 -27 15 -42 25 -14 9 -64 39 -110 67 -45 27 -103 63 -128 80
-59 39 -82 54 -100 62 -8 4 -53 32 -100 62 -47 30 -105 66 -130 80 -24 13 -69
41 -100 61 -30 20 -82 54 -115 75 -33 21 -62 41 -65 46 -10 15 9 253 26 326
19 83 18 82 159 108 93 17 162 30 230 45 22 4 65 13 95 19 30 6 89 17 130 26
41 8 111 22 155 31 44 9 96 20 115 24 19 4 85 18 145 29 61 12 126 26 145 31
19 5 68 17 108 26 74 17 90 27 118 70 25 37 5 57 -68 73 -58 12 -132 29 -218
51 -19 5 -87 21 -150 35 -162 36 -200 45 -240 55 -19 5 -69 16 -110 25 -41 9
-102 23 -135 32 -33 8 -71 17 -85 19 -14 3 -43 9 -65 14 -22 5 -74 16 -115 26
-80 17 -152 39 -179 53 -25 14 -55 221 -49 338 5 110 -14 89 192 216 11 7 44
27 72 45 29 17 56 32 59 32 4 0 21 11 39 25 18 14 36 25 40 25 4 0 26 13 49
29 23 16 101 65 172 108 72 44 168 103 215 133 47 29 99 61 116 70 17 10 73
44 125 76 127 79 130 82 159 96 14 8 57 34 96 60 39 25 84 53 100 62 16 9 38
22 48 29 11 6 43 27 72 44 50 31 94 79 94 102 0 19 -38 33 -59 21 -11 -5 -30
-10 -43 -10 -13 0 -77 -14 -143 -31 -66 -17 -151 -37 -190 -45 -67 -13 -95
-20 -195 -44 -25 -6 -67 -15 -93 -20 -26 -5 -56 -12 -67 -15 -11 -3 -41 -10
-67 -15 -26 -5 -68 -14 -93 -20 -25 -6 -65 -15 -90 -20 -25 -5 -76 -16 -115
-25 -38 -8 -90 -20 -115 -25 -25 -5 -99 -21 -165 -36 -66 -14 -138 -30 -160
-34 -22 -5 -94 -20 -160 -35 -66 -15 -138 -31 -160 -35 -22 -5 -47 -11 -56
-15 -13 -5 -30 17 -76 92 -95 156 -123 209 -123 233 0 23 41 107 95 195 17 28
35 57 40 67 16 27 203 298 250 363 25 33 49 69 55 80 11 21 12 22 166 226 162
215 170 228 157 247 -17 26 -86 17 -137 -17 -22 -15 -48 -31 -56 -34 -8 -4
-45 -26 -82 -50 -176 -110 -293 -182 -303 -186 -5 -2 -33 -19 -62 -37 -28 -19
-55 -34 -59 -34 -4 0 -22 -11 -40 -25 -18 -14 -34 -25 -37 -25 -5 0 -155 -90
-192 -116 -16 -11 -37 -24 -45 -28 -8 -3 -35 -19 -60 -35 -87 -57 -144 -83
-178 -83 -37 0 -165 59 -242 111 -25 17 -50 31 -56 31 -36 0 -30 64 27 293 19
79 27 114 38 167 13 67 48 214 61 255 5 17 12 48 15 70 6 35 28 128 55 235 5
19 21 87 35 150 15 63 35 151 45 195 10 44 30 132 45 195 25 114 32 144 55
228 6 24 15 67 20 95 4 29 11 64 15 78 13 50 -37 73 -100 45z"/>
<path d="M4315 5755 c-169 -21 -261 -48 -393 -116 -144 -74 -210 -121 -345
-249 -137 -129 -253 -313 -312 -495 -112 -341 -71 -768 101 -1075 90 -160 269
-339 446 -445 27 -16 191 -98 213 -106 11 -4 34 -12 50 -18 17 -6 71 -21 120
-33 97 -24 279 -30 420 -14 302 33 582 174 825 416 262 262 382 600 341 968
-21 188 -53 297 -130 446 -175 338 -508 605 -862 689 -199 47 -299 54 -474 32z"/>
</g>
</svg>
