<?xml version="1.0" encoding="utf-8"?>
<!-- Generator: Adobe Illustrator 23.0.1, SVG Export Plug-In . SVG Version: 6.00 Build 0)  -->
<svg version="1.1" id="Layer_1" xmlns="http://www.w3.org/2000/svg" xmlns:xlink="http://www.w3.org/1999/xlink" x="0px" y="0px"
	 viewBox="0 0 2000 2000" style="enable-background:new 0 0 2000 2000;" xml:space="preserve">
<g>
	<g id="l1_1_" transform="translate(-187.14286,-110.93358)">
		<path id="p1_1_" d="M1188.64,114.93c-550.07,0-996.5,446.43-996.5,996.5s446.43,996.5,996.5,996.5
			c550.07,0,996.5-446.43,996.5-996.5S1738.71,114.93,1188.64,114.93z M1141.61,197.55c0.56-0.03,1.13,0.03,1.69,0l4.24,67.58
			c-57.48,2.74-113.42,11.12-167.35,24.79l16.74,65.88c-141.58,35.86-267.68,110.42-366.48,211.84l-48.51-47.45
			c-39.46,40.48-74.73,84.94-105.5,132.61l-56.77-37.5C574.72,375.55,838.84,212.92,1141.61,197.55z M1233.98,197.55
			c303.48,14.85,568.3,177.56,723.65,417.75l-56.77,37.5c-30.7-47.55-65.94-92.01-105.28-132.4l-48.51,47.24
			c-98.82-101.48-225.07-175.97-366.7-211.84l16.74-65.88c-53.94-13.66-109.88-22.05-167.35-24.79L1233.98,197.55z M1188.64,496.25
			c28.81-0.07,57.62,1.69,81.35,5.08l-37.07,308.44c77.92,11.36,146.25,52.15,193.41,110.79l247.43-185.57
			c30.05,37.44,64.13,96.18,81.98,140.66l-284.29,121.6c14.29,35.3,22.24,73.77,22.24,114.18c0,38.93-7.24,76.13-20.55,110.37
			l281.96,120.54c-17.4,44.75-51.11,103.38-80.71,141.09l-245.74-183.88c-47.1,59.99-116.21,101.88-195.11,113.55l36.44,303.36
			c-47.45,7.31-115.24,7.2-162.69,0.42l36.44-303.78c-78.96-11.68-148-53.7-195.11-113.76l-245.1,183.88
			c-30.05-37.44-64.13-96.18-81.98-140.66l282.6-120.96c-13.27-34.19-20.55-71.3-20.55-110.16c0-40.48,7.91-79.04,22.24-114.39
			L622.18,875.87c17.4-44.75,51.11-103.38,80.71-141.09l248.07,185.78c47.16-58.65,115.49-99.43,193.41-110.79l-37.07-308.02
			C1131.02,498.1,1159.83,496.31,1188.64,496.25z M374.33,693.68l61.01,30.08c-25.73,49.89-46.77,102.56-62.28,157.61l65.25,18.43
			c-18.97,67.31-29.23,138.27-29.23,211.63c0,73.43,10.23,144.47,29.23,211.84l-65.25,18.43c15.5,54.97,36.58,107.59,62.28,157.4
			l-61.01,30.08c-64.43-125.26-100.84-267.28-100.84-417.75C273.49,960.96,309.89,818.95,374.33,693.68z M2002.96,693.68
			c64.43,125.26,100.84,267.28,100.84,417.75c0,150.47-36.4,292.49-100.84,417.75l-61.01-30.08
			c25.71-49.82,46.78-102.41,62.28-157.4l-65.25-18.43c19-67.37,29.23-138.42,29.23-211.84c0-73.35-10.27-144.31-29.23-211.63
			l65.25-18.43c-15.51-55.04-36.56-107.74-62.28-157.61L2002.96,693.68z M476.43,1570.07c30.78,47.67,66.04,92.13,105.5,132.61
			l48.51-47.45c98.81,101.42,224.91,175.98,366.48,211.84l-16.74,65.88c53.94,13.66,109.88,22.05,167.35,24.79l-4.24,67.58
			c-303.48-14.85-568.3-177.56-723.65-417.75L476.43,1570.07z M1901.06,1570.07l56.56,37.5
			c-155.35,240.19-420.17,402.9-723.65,417.75l-4.24-67.58c57.48-2.74,113.42-11.12,167.35-24.79l-16.74-65.88
			c141.63-35.87,267.87-110.36,366.7-211.84l48.51,47.24C1834.96,1662.03,1870.33,1617.69,1901.06,1570.07z"/>
	</g>
</g>
</svg>
